<svg xmlns="http://www.w3.org/2000/svg" xmlns:xlink="http://www.w3.org/1999/xlink" width="500" zoomAndPan="magnify" viewBox="0 0 375 374.999991" height="500" preserveAspectRatio="xMidYMid meet" version="1.0"><defs><clipPath id="6cb9a6d5d8"><path d="M 83.578125 173 L 191 173 L 191 292.628906 L 83.578125 292.628906 Z M 83.578125 173 " clip-rule="nonzero"/></clipPath><clipPath id="f779a423ee"><path d="M 190 173 L 297.328125 173 L 297.328125 292.628906 L 190 292.628906 Z M 190 173 " clip-rule="nonzero"/></clipPath><clipPath id="c2674009dc"><path d="M 203 82.628906 L 215 82.628906 L 215 94 L 203 94 Z M 203 82.628906 " clip-rule="nonzero"/></clipPath><clipPath id="57fc28fe97"><path d="M 20 20 L 355.5 20 L 355.5 367 L 20 367 Z M 20 20 " clip-rule="nonzero"/></clipPath></defs><g clip-path="url(#6cb9a6d5d8)"><path fill="#3871c1" d="M 128.132812 265.546875 C 134.367188 261.9375 138.6875 260.15625 144.273438 258.488281 C 149.664062 256.878906 162.25 257.601562 162.011719 255.121094 C 161.824219 253.160156 155.023438 252.144531 143.605469 253.773438 C 134.671875 255.054688 166.722656 243.488281 165.269531 240.203125 C 163.839844 236.964844 141.898438 248.347656 140.359375 247.542969 C 137.742188 246.183594 162.253906 230.121094 160.808594 227.746094 C 158.808594 224.464844 137.558594 242.136719 135.699219 242.03125 C 133.835938 241.925781 152.882812 225.699219 150.789062 223.457031 C 147.929688 220.394531 137.25 233.628906 131.484375 238.734375 C 125.71875 243.839844 122.035156 239.105469 124.359375 229.28125 C 126.003906 222.324219 120.132812 216.695312 118.015625 229.5625 C 117.347656 233.617188 116.101562 237.519531 115.296875 245.191406 C 114.347656 254.226562 112.484375 258.203125 102.589844 269.714844 L 83.585938 174.269531 C 143.445312 168.304688 190.460938 199.59375 190.460938 199.59375 L 190.460938 292.597656 C 165.480469 273.601562 138.015625 272.195312 119.117188 274.453125 C 123.351562 269.773438 126.671875 266.394531 128.132812 265.546875 " fill-opacity="1" fill-rule="nonzero"/></g><g clip-path="url(#f779a423ee)"><path fill="#51ade5" d="M 252.789062 265.546875 C 246.550781 261.9375 242.234375 260.15625 236.652344 258.488281 C 231.257812 256.878906 218.671875 257.601562 218.910156 255.121094 C 219.097656 253.160156 225.894531 252.144531 237.316406 253.777344 C 246.25 255.054688 214.199219 243.488281 215.648438 240.203125 C 217.082031 236.964844 239.023438 248.347656 240.5625 247.546875 C 243.179688 246.183594 218.664062 230.121094 220.113281 227.746094 C 222.113281 224.46875 243.363281 242.136719 245.226562 242.03125 C 247.085938 241.925781 228.039062 225.699219 230.132812 223.457031 C 232.992188 220.398438 243.671875 233.628906 249.4375 238.734375 C 255.203125 243.84375 258.886719 239.105469 256.5625 229.28125 C 254.917969 222.324219 260.789062 216.695312 262.90625 229.5625 C 263.574219 233.617188 264.820312 237.519531 265.625 245.191406 C 266.574219 254.230469 268.433594 258.203125 278.332031 269.714844 L 297.335938 174.269531 C 237.476562 168.308594 190.460938 199.59375 190.460938 199.59375 L 190.460938 292.597656 C 215.441406 273.601562 242.90625 272.195312 261.804688 274.453125 C 257.570312 269.773438 254.25 266.394531 252.789062 265.546875 " fill-opacity="1" fill-rule="nonzero"/></g><path fill="#3871c1" d="M 194.769531 182.898438 L 186.152344 182.898438 L 186.152344 174.269531 L 194.769531 174.269531 L 194.769531 182.898438 " fill-opacity="1" fill-rule="nonzero"/><path fill="#3871c1" d="M 169.988281 157.5625 L 161.371094 157.5625 L 161.371094 148.933594 L 169.988281 148.933594 L 169.988281 157.5625 " fill-opacity="1" fill-rule="nonzero"/><path fill="#3871c1" d="M 209.101562 170.3125 L 198.726562 170.3125 L 198.726562 159.921875 L 209.101562 159.921875 L 209.101562 170.3125 " fill-opacity="1" fill-rule="nonzero"/><path fill="#3871c1" d="M 237.480469 158.820312 L 227.105469 158.820312 L 227.105469 148.433594 L 237.480469 148.433594 L 237.480469 158.820312 " fill-opacity="1" fill-rule="nonzero"/><path fill="#3871c1" d="M 191.34375 129.160156 L 180.964844 129.160156 L 180.964844 118.769531 L 191.34375 118.769531 L 191.34375 129.160156 " fill-opacity="1" fill-rule="nonzero"/><g clip-path="url(#c2674009dc)"><path fill="#3871c1" d="M 214.289062 93.054688 L 203.914062 93.054688 L 203.914062 82.664062 L 214.289062 82.664062 L 214.289062 93.054688 " fill-opacity="1" fill-rule="nonzero"/></g><path fill="#51ade5" d="M 162.679688 141.542969 L 152.304688 141.542969 L 152.304688 131.152344 L 162.679688 131.152344 L 162.679688 141.542969 " fill-opacity="1" fill-rule="nonzero"/><path fill="#51ade5" d="M 212.570312 148.933594 L 200 148.933594 L 200 136.347656 L 212.570312 136.347656 L 212.570312 148.933594 " fill-opacity="1" fill-rule="nonzero"/><path fill="#3871c1" d="M 144.664062 163.855469 L 132.089844 163.855469 L 132.089844 151.269531 L 144.664062 151.269531 L 144.664062 163.855469 " fill-opacity="1" fill-rule="nonzero"/><path fill="#3871c1" d="M 190.460938 161.519531 L 177.890625 161.519531 L 177.890625 148.933594 L 190.460938 148.933594 L 190.460938 161.519531 " fill-opacity="1" fill-rule="nonzero"/><path fill="#51ade5" d="M 185.273438 105.640625 L 172.703125 105.640625 L 172.703125 93.054688 L 185.273438 93.054688 L 185.273438 105.640625 " fill-opacity="1" fill-rule="nonzero"/><path fill="#51ade5" d="M 171.964844 179.808594 L 159.394531 179.808594 L 159.394531 167.21875 L 171.964844 167.21875 L 171.964844 179.808594 " fill-opacity="1" fill-rule="nonzero"/><path fill="#3871c1" d="M 232.292969 136.347656 L 217.011719 136.347656 L 217.011719 121.046875 L 232.292969 121.046875 L 232.292969 136.347656 " fill-opacity="1" fill-rule="nonzero"/><path fill="#3871c1" d="M 268.0625 161.277344 L 252.78125 161.277344 L 252.78125 145.980469 L 268.0625 145.980469 L 268.0625 161.277344 " fill-opacity="1" fill-rule="nonzero"/><path fill="#3871c1" d="M 152.304688 118.769531 L 137.023438 118.769531 L 137.023438 103.472656 L 152.304688 103.472656 L 152.304688 118.769531 " fill-opacity="1" fill-rule="nonzero"/><path fill="#3871c1" d="M 337.203125 266.203125 C 337.839844 264.867188 338.53125 263.546875 339.128906 262.171875 C 339.71875 260.789062 340.3125 259.402344 340.910156 258.003906 C 341.207031 257.304688 341.503906 256.601562 341.804688 255.898438 C 342.070312 255.179688 342.335938 254.460938 342.601562 253.742188 C 343.132812 252.292969 343.667969 250.839844 344.203125 249.378906 C 344.71875 247.910156 345.148438 246.402344 345.628906 244.902344 C 346.078125 243.394531 346.601562 241.894531 346.964844 240.347656 C 347.359375 238.804688 347.753906 237.257812 348.152344 235.699219 L 348.449219 234.53125 L 348.695312 233.347656 C 348.855469 232.558594 349.015625 231.765625 349.175781 230.972656 C 350.523438 224.628906 351.320312 218.070312 351.824219 211.417969 C 351.914062 209.75 352 208.078125 352.085938 206.402344 C 352.140625 205.5625 352.144531 204.722656 352.144531 203.882812 L 352.148438 201.351562 C 352.21875 197.972656 351.972656 194.589844 351.816406 191.1875 C 350.835938 177.601562 348.046875 163.910156 343.335938 150.886719 L 342.464844 148.441406 C 342.152344 147.632812 341.816406 146.835938 341.492188 146.03125 C 340.832031 144.433594 340.191406 142.824219 339.507812 141.234375 C 338.035156 138.105469 336.652344 134.9375 334.980469 131.914062 L 333.773438 129.628906 C 333.375 128.863281 332.964844 128.109375 332.515625 127.371094 C 331.636719 125.890625 330.757812 124.414062 329.882812 122.9375 C 329.015625 121.457031 328.019531 120.058594 327.089844 118.621094 C 326.140625 117.199219 325.214844 115.761719 324.179688 114.410156 C 323.167969 113.035156 322.160156 111.667969 321.152344 110.300781 C 320.117188 108.957031 319.023438 107.664062 317.960938 106.351562 L 316.355469 104.398438 C 315.808594 103.753906 315.234375 103.140625 314.671875 102.515625 C 313.546875 101.273438 312.417969 100.035156 311.296875 98.796875 C 310.128906 97.601562 308.941406 96.4375 307.769531 95.265625 C 307.183594 94.683594 306.59375 94.097656 306.007812 93.519531 C 305.410156 92.945312 304.789062 92.40625 304.179688 91.851562 C 302.957031 90.75 301.738281 89.65625 300.527344 88.5625 C 299.289062 87.496094 298.007812 86.492188 296.757812 85.464844 C 294.285156 83.375 291.644531 81.550781 289.085938 79.671875 C 287.820312 78.710938 286.460938 77.902344 285.160156 77.027344 C 283.839844 76.175781 282.542969 75.300781 281.222656 74.488281 C 279.882812 73.707031 278.546875 72.929688 277.21875 72.160156 C 275.890625 71.390625 274.578125 70.609375 273.214844 69.941406 C 270.503906 68.574219 267.875 67.132812 265.148438 65.980469 C 254.378906 61.082031 243.636719 57.769531 233.554688 55.742188 C 223.46875 53.699219 214.046875 52.96875 205.742188 52.929688 C 204.703125 52.921875 203.679688 52.917969 202.675781 52.914062 C 201.671875 52.902344 200.683594 52.984375 199.714844 53.015625 C 197.777344 53.117188 195.910156 53.164062 194.125 53.3125 C 190.550781 53.667969 187.273438 53.941406 184.339844 54.4375 C 182.871094 54.660156 181.484375 54.871094 180.175781 55.070312 C 178.882812 55.332031 177.671875 55.578125 176.539062 55.808594 C 175.414062 56.039062 174.367188 56.253906 173.414062 56.453125 C 172.464844 56.671875 171.609375 56.910156 170.839844 57.097656 C 167.773438 57.898438 166.140625 58.328125 166.140625 58.328125 C 166.140625 58.328125 167.804688 58.042969 170.925781 57.511719 C 171.707031 57.378906 172.570312 57.214844 173.53125 57.074219 C 174.496094 56.957031 175.546875 56.824219 176.683594 56.683594 C 177.820312 56.542969 179.039062 56.394531 180.339844 56.234375 C 181.648438 56.128906 183.035156 56.011719 184.503906 55.894531 C 187.425781 55.597656 190.6875 55.5625 194.21875 55.441406 C 195.984375 55.410156 197.828125 55.480469 199.734375 55.496094 C 200.6875 55.523438 201.65625 55.5 202.644531 55.566406 C 203.628906 55.625 204.628906 55.6875 205.648438 55.746094 C 213.785156 56.246094 222.921875 57.496094 232.621094 59.90625 C 242.316406 62.320312 252.558594 65.9375 262.769531 70.992188 C 265.359375 72.1875 267.84375 73.660156 270.410156 75.050781 C 271.703125 75.730469 272.9375 76.523438 274.191406 77.296875 C 275.449219 78.074219 276.710938 78.855469 277.976562 79.640625 C 279.222656 80.457031 280.445312 81.328125 281.6875 82.175781 C 282.914062 83.050781 284.203125 83.851562 285.390625 84.804688 C 287.796875 86.667969 290.285156 88.472656 292.609375 90.523438 C 293.789062 91.53125 294.992188 92.511719 296.15625 93.550781 C 297.296875 94.617188 298.441406 95.6875 299.589844 96.757812 C 300.160156 97.300781 300.746094 97.824219 301.308594 98.382812 C 301.855469 98.949219 302.40625 99.515625 302.957031 100.085938 C 304.054688 101.226562 305.15625 102.371094 306.261719 103.515625 C 307.308594 104.714844 308.363281 105.914062 309.421875 107.117188 C 309.945312 107.722656 310.488281 108.316406 310.996094 108.933594 L 312.5 110.820312 C 313.496094 112.085938 314.519531 113.332031 315.496094 114.617188 C 316.441406 115.929688 317.390625 117.246094 318.339844 118.558594 C 319.3125 119.863281 320.175781 121.242188 321.066406 122.605469 C 321.9375 123.980469 322.878906 125.316406 323.691406 126.738281 C 324.515625 128.148438 325.339844 129.558594 326.167969 130.972656 C 326.589844 131.675781 326.976562 132.398438 327.351562 133.128906 L 328.488281 135.308594 C 330.070312 138.191406 331.367188 141.214844 332.765625 144.195312 C 333.410156 145.710938 334.015625 147.242188 334.636719 148.765625 C 334.945312 149.527344 335.265625 150.289062 335.554688 151.058594 L 336.378906 153.390625 C 340.898438 165.773438 343.5625 178.785156 344.664062 191.71875 C 344.835938 194.957031 345.105469 198.183594 345.078125 201.402344 L 345.105469 203.8125 C 345.121094 204.617188 345.128906 205.417969 345.085938 206.21875 C 345.03125 207.816406 344.976562 209.414062 344.921875 211.007812 C 344.554688 217.359375 343.914062 223.640625 342.738281 229.730469 C 342.597656 230.492188 342.460938 231.253906 342.324219 232.011719 L 342.117188 233.152344 L 341.855469 234.273438 C 341.511719 235.773438 341.167969 237.265625 340.824219 238.75 C 340.511719 240.242188 340.046875 241.6875 339.652344 243.144531 C 339.230469 244.589844 338.859375 246.046875 338.398438 247.46875 C 337.925781 248.886719 337.453125 250.296875 336.984375 251.699219 C 336.746094 252.398438 336.511719 253.097656 336.277344 253.792969 C 336.007812 254.476562 335.742188 255.160156 335.476562 255.839844 C 334.945312 257.199219 334.417969 258.554688 333.890625 259.898438 C 333.359375 261.238281 332.730469 262.53125 332.160156 263.835938 C 327.5 274.242188 321.917969 283.53125 316.003906 291.578125 C 310.089844 299.628906 303.855469 306.433594 297.914062 312.023438 C 291.949219 317.59375 286.367188 322.078125 281.527344 325.429688 C 280.320312 326.265625 279.203125 327.105469 278.101562 327.816406 C 276.996094 328.527344 275.964844 329.191406 275 329.8125 C 274.035156 330.425781 273.152344 331.023438 272.320312 331.523438 C 271.480469 332.011719 270.714844 332.453125 270.03125 332.847656 C 268.660156 333.644531 267.613281 334.257812 266.90625 334.667969 C 266.554688 334.878906 266.28125 335.027344 266.09375 335.117188 C 265.910156 335.214844 265.816406 335.265625 265.816406 335.265625 C 265.816406 335.265625 265.914062 335.226562 266.105469 335.144531 C 266.300781 335.070312 266.585938 334.945312 266.953125 334.765625 C 267.695312 334.417969 268.796875 333.898438 270.230469 333.222656 C 270.945312 332.882812 271.746094 332.5 272.625 332.078125 C 273.503906 331.644531 274.429688 331.125 275.453125 330.589844 C 276.464844 330.039062 277.554688 329.453125 278.722656 328.824219 C 279.882812 328.1875 281.0625 327.425781 282.335938 326.660156 C 287.441406 323.613281 293.421875 319.5 299.792969 314.140625 C 306.167969 308.804688 312.945312 302.207031 319.398438 294.199219 C 325.855469 286.203125 332.003906 276.84375 337.203125 266.203125 " fill-opacity="1" fill-rule="nonzero"/><path fill="#3871c1" d="M 300.296875 298.675781 C 300.769531 298.179688 301.242188 297.683594 301.71875 297.183594 C 302.664062 296.183594 303.617188 295.175781 304.578125 294.160156 C 305.542969 293.152344 306.414062 292.046875 307.34375 290.984375 C 308.25 289.898438 309.210938 288.847656 310.082031 287.714844 C 310.953125 286.585938 311.828125 285.441406 312.707031 284.296875 C 313.148438 283.722656 313.585938 283.144531 314.027344 282.566406 C 314.4375 281.972656 314.851562 281.371094 315.265625 280.769531 C 316.09375 279.566406 316.925781 278.359375 317.757812 277.144531 C 318.570312 275.914062 319.320312 274.636719 320.105469 273.375 C 321.714844 270.867188 323.097656 268.199219 324.550781 265.550781 C 325.304688 264.238281 325.902344 262.839844 326.578125 261.476562 C 327.222656 260.09375 327.941406 258.742188 328.527344 257.324219 C 329.703125 254.492188 330.96875 251.671875 331.957031 248.730469 C 332.460938 247.265625 333.046875 245.820312 333.488281 244.324219 C 333.9375 242.832031 334.390625 241.335938 334.84375 239.835938 C 336.515625 233.804688 337.9375 227.628906 338.742188 221.335938 L 339.082031 218.980469 C 339.195312 218.191406 339.242188 217.398438 339.324219 216.609375 L 339.769531 211.863281 L 339.984375 207.09375 C 340.011719 206.300781 340.074219 205.503906 340.070312 204.710938 L 340.0625 202.320312 C 340.085938 189.578125 338.214844 176.867188 334.824219 164.8125 C 333.902344 161.820312 333.050781 158.820312 331.9375 155.917969 L 331.148438 153.734375 L 330.75 152.648438 L 330.304688 151.578125 C 329.710938 150.15625 329.117188 148.734375 328.523438 147.320312 C 325.996094 141.738281 323.289062 136.308594 320.140625 131.253906 C 314.007812 121.046875 306.621094 112.117188 298.824219 104.550781 C 291.023438 96.976562 282.761719 90.792969 274.675781 85.929688 C 266.589844 81.046875 258.675781 77.492188 251.507812 74.882812 C 250.617188 74.550781 249.738281 74.222656 248.871094 73.902344 C 247.992188 73.625 247.128906 73.351562 246.277344 73.085938 C 244.570312 72.574219 242.949219 72.011719 241.351562 71.605469 C 238.15625 70.808594 235.242188 70.015625 232.550781 69.546875 C 231.214844 69.28125 229.949219 69.03125 228.757812 68.792969 C 227.558594 68.625 226.429688 68.464844 225.382812 68.316406 C 224.339844 68.171875 223.367188 68.035156 222.484375 67.914062 C 221.597656 67.792969 220.78125 67.75 220.058594 67.675781 C 217.160156 67.429688 215.613281 67.296875 215.613281 67.296875 C 215.613281 67.296875 217.140625 67.574219 220 68.09375 C 220.710938 68.226562 221.511719 68.339844 222.382812 68.539062 C 223.25 68.738281 224.199219 68.957031 225.222656 69.191406 C 226.246094 69.425781 227.34375 69.679688 228.515625 69.949219 C 229.675781 70.269531 230.90625 70.609375 232.207031 70.96875 C 234.824219 71.625 237.640625 72.632812 240.71875 73.640625 C 242.257812 74.152344 243.8125 74.816406 245.449219 75.425781 C 246.265625 75.738281 247.09375 76.058594 247.9375 76.386719 C 248.765625 76.753906 249.609375 77.121094 250.464844 77.5 C 257.3125 80.488281 264.78125 84.425781 272.386719 89.53125 C 279.984375 94.632812 287.679688 100.933594 294.898438 108.46875 C 302.113281 116 308.902344 124.730469 314.515625 134.59375 C 317.421875 139.464844 319.886719 144.691406 322.183594 150.042969 C 322.722656 151.398438 323.261719 152.753906 323.800781 154.117188 L 324.207031 155.136719 L 325.285156 158.265625 C 326.304688 161.03125 327.070312 163.890625 327.925781 166.738281 C 330.980469 178.21875 332.734375 190.257812 332.667969 202.328125 L 332.683594 204.585938 C 332.691406 205.339844 332.632812 206.09375 332.609375 206.847656 L 332.417969 211.363281 L 332.011719 215.859375 C 331.9375 216.609375 331.898438 217.363281 331.792969 218.105469 L 331.480469 220.335938 C 330.746094 226.304688 329.441406 232.160156 327.933594 237.902344 C 327.519531 239.324219 327.105469 240.75 326.691406 242.167969 C 326.292969 243.59375 325.75 244.96875 325.289062 246.367188 C 324.394531 249.175781 323.238281 251.867188 322.175781 254.585938 C 321.648438 255.941406 320.988281 257.238281 320.40625 258.5625 C 319.785156 259.871094 319.246094 261.21875 318.554688 262.480469 C 317.21875 265.03125 315.957031 267.597656 314.46875 270.015625 C 313.746094 271.234375 313.0625 272.472656 312.320312 273.667969 C 311.550781 274.847656 310.789062 276.019531 310.027344 277.1875 C 309.648438 277.773438 309.269531 278.355469 308.890625 278.9375 C 308.484375 279.5 308.082031 280.0625 307.675781 280.621094 C 306.867188 281.742188 306.0625 282.855469 305.261719 283.960938 C 304.460938 285.070312 303.570312 286.097656 302.738281 287.167969 C 301.882812 288.210938 301.082031 289.300781 300.191406 290.292969 C 299.304688 291.296875 298.425781 292.289062 297.546875 293.277344 C 297.109375 293.773438 296.675781 294.265625 296.238281 294.757812 C 295.78125 295.226562 295.324219 295.695312 294.867188 296.160156 C 287.644531 303.691406 279.957031 309.992188 272.367188 315.097656 C 264.773438 320.207031 257.292969 324.136719 250.4375 327.109375 C 248.742188 327.898438 247.046875 328.527344 245.417969 329.167969 C 244.605469 329.484375 243.804688 329.800781 243.019531 330.105469 C 242.238281 330.425781 241.445312 330.65625 240.679688 330.929688 C 239.144531 331.453125 237.667969 331.953125 236.261719 332.433594 C 234.832031 332.847656 233.46875 333.242188 232.171875 333.617188 C 226.976562 335.0625 222.816406 335.972656 219.960938 336.488281 C 218.535156 336.765625 217.445312 337.011719 216.703125 337.097656 C 215.960938 337.207031 215.578125 337.265625 215.578125 337.265625 C 215.578125 337.265625 215.964844 337.246094 216.714844 337.207031 C 217.46875 337.191406 218.574219 337.050781 220.023438 336.910156 C 222.917969 336.628906 227.171875 336.136719 232.515625 335.046875 C 233.851562 334.769531 235.257812 334.472656 236.734375 334.164062 C 238.195312 333.785156 239.722656 333.386719 241.316406 332.976562 C 242.109375 332.753906 242.933594 332.578125 243.75 332.308594 C 244.566406 332.050781 245.398438 331.789062 246.246094 331.519531 C 247.941406 330.980469 249.710938 330.445312 251.484375 329.742188 C 258.660156 327.152344 266.578125 323.601562 274.664062 318.71875 C 282.75 313.847656 291.011719 307.660156 298.816406 300.089844 C 299.308594 299.621094 299.804688 299.148438 300.296875 298.675781 " fill-opacity="1" fill-rule="nonzero"/><path fill="#3871c1" d="M 248.230469 320.171875 C 254.914062 317.519531 261.441406 314.296875 267.636719 310.46875 C 273.824219 306.632812 279.703125 302.246094 285.164062 297.394531 C 290.605469 292.519531 295.671875 287.210938 300.175781 281.480469 C 304.664062 275.742188 308.652344 269.644531 312.097656 263.320312 C 315.582031 257.019531 318.382812 250.425781 320.625 243.753906 C 322.855469 237.074219 324.550781 230.3125 325.636719 223.566406 C 326.679688 216.808594 327.167969 210.09375 327.164062 203.527344 C 327.199219 196.957031 326.546875 190.542969 325.59375 184.375 C 325.46875 183.605469 325.339844 182.839844 325.214844 182.074219 C 325.089844 181.308594 324.972656 180.546875 324.792969 179.796875 C 324.46875 178.292969 324.148438 176.800781 323.828125 175.320312 C 323.492188 173.839844 323.058594 172.398438 322.6875 170.953125 C 322.496094 170.238281 322.300781 169.519531 322.109375 168.804688 C 321.882812 168.101562 321.660156 167.402344 321.433594 166.703125 C 319.746094 161.089844 317.550781 155.855469 315.289062 150.933594 C 310.621094 141.144531 305.148438 132.808594 299.621094 126.027344 C 294.101562 119.230469 288.578125 113.945312 283.769531 109.960938 C 283.171875 109.453125 282.621094 108.933594 282.03125 108.488281 C 281.445312 108.035156 280.875 107.597656 280.324219 107.171875 C 279.21875 106.324219 278.199219 105.519531 277.226562 104.800781 C 275.230469 103.425781 273.53125 102.257812 272.15625 101.308594 C 269.304688 99.566406 267.789062 98.636719 267.789062 98.636719 C 267.789062 98.636719 269.222656 99.683594 271.910156 101.652344 C 273.203125 102.695312 274.800781 103.984375 276.675781 105.5 C 277.585938 106.285156 278.539062 107.164062 279.570312 108.074219 C 280.085938 108.53125 280.617188 109 281.164062 109.484375 C 281.71875 109.964844 282.230469 110.515625 282.789062 111.046875 C 287.28125 115.285156 292.332031 120.851562 297.390625 127.75 C 302.425781 134.660156 307.289062 143.042969 311.394531 152.675781 C 313.371094 157.523438 315.28125 162.640625 316.703125 168.097656 C 316.894531 168.773438 317.085938 169.457031 317.277344 170.136719 C 317.433594 170.832031 317.59375 171.523438 317.753906 172.222656 C 318.0625 173.621094 318.429688 175.015625 318.699219 176.441406 C 318.960938 177.871094 319.21875 179.3125 319.480469 180.761719 C 319.632812 181.484375 319.714844 182.21875 319.8125 182.953125 C 319.910156 183.6875 320.007812 184.425781 320.105469 185.167969 C 320.828125 191.089844 321.28125 197.21875 321.078125 203.476562 C 320.917969 209.726562 320.308594 216.089844 319.191406 222.46875 C 318.046875 228.847656 316.324219 235.222656 314.105469 241.492188 C 311.882812 247.765625 309.152344 253.949219 305.816406 259.871094 C 302.492188 265.804688 298.691406 271.535156 294.4375 276.925781 C 290.171875 282.308594 285.386719 287.292969 280.25 291.867188 C 275.117188 296.453125 269.59375 300.589844 263.78125 304.230469 C 257.960938 307.859375 251.828125 310.933594 245.550781 313.511719 C 239.265625 316.070312 232.820312 318.101562 226.328125 319.605469 C 219.835938 321.117188 213.28125 321.976562 206.820312 322.386719 C 206.011719 322.4375 205.203125 322.492188 204.398438 322.542969 C 203.59375 322.59375 202.789062 322.574219 201.984375 322.59375 C 201.183594 322.605469 200.378906 322.621094 199.582031 322.636719 C 198.78125 322.65625 197.984375 322.667969 197.1875 322.625 C 195.59375 322.578125 194.011719 322.527344 192.433594 322.476562 C 190.863281 322.351562 189.296875 322.226562 187.742188 322.105469 C 181.53125 321.484375 175.488281 320.472656 169.703125 319.042969 C 168.257812 318.6875 166.84375 318.253906 165.421875 317.871094 C 164.714844 317.667969 164.007812 317.492188 163.308594 317.269531 C 162.617188 317.039062 161.929688 316.808594 161.242188 316.578125 C 159.875 316.105469 158.484375 315.710938 157.160156 315.1875 C 155.824219 314.671875 154.503906 314.160156 153.195312 313.648438 C 148.003906 311.484375 143.066406 309.164062 138.539062 306.515625 C 133.945312 303.980469 129.742188 301.183594 125.894531 298.339844 C 122.050781 295.488281 118.546875 292.582031 115.394531 289.691406 C 109.152344 283.847656 104.199219 278.203125 100.496094 273.257812 C 96.796875 268.316406 94.148438 264.214844 92.472656 261.347656 C 91.59375 259.929688 91.011719 258.796875 90.574219 258.054688 C 90.148438 257.304688 89.929688 256.917969 89.929688 256.917969 C 89.929688 256.917969 90.117188 257.324219 90.476562 258.105469 C 90.851562 258.878906 91.339844 260.0625 92.097656 261.550781 C 93.574219 264.542969 95.863281 268.886719 99.296875 274.109375 C 102.710938 279.34375 107.332031 285.425781 113.421875 291.71875 C 116.476562 294.851562 119.902344 298.027344 123.707031 301.160156 C 127.511719 304.28125 131.703125 307.375 136.339844 310.199219 C 140.902344 313.136719 145.925781 315.757812 151.242188 318.207031 C 152.585938 318.785156 153.941406 319.371094 155.308594 319.960938 C 156.671875 320.554688 158.105469 321.019531 159.515625 321.5625 C 160.226562 321.828125 160.9375 322.09375 161.652344 322.359375 C 162.371094 322.613281 163.105469 322.820312 163.835938 323.058594 C 165.304688 323.507812 166.769531 324.007812 168.273438 324.429688 C 174.277344 326.113281 180.582031 327.363281 187.09375 328.179688 C 188.722656 328.351562 190.363281 328.523438 192.015625 328.699219 C 193.671875 328.789062 195.335938 328.882812 197.011719 328.972656 C 197.847656 329.035156 198.6875 329.042969 199.527344 329.039062 C 200.371094 329.042969 201.214844 329.050781 202.0625 329.054688 C 202.90625 329.054688 203.757812 329.085938 204.605469 329.054688 C 205.457031 329.015625 206.308594 328.976562 207.160156 328.941406 C 213.984375 328.632812 220.917969 327.84375 227.808594 326.367188 C 234.695312 324.894531 241.550781 322.835938 248.230469 320.171875 " fill-opacity="1" fill-rule="nonzero"/><g clip-path="url(#57fc28fe97)"><path fill="#00adef" d="M 164.277344 350.347656 C 80.410156 324.816406 33.105469 236.074219 58.617188 152.140625 C 84.128906 68.210938 172.800781 20.867188 256.664062 46.398438 C 302.726562 60.421875 337.757812 93.515625 355.753906 134.40625 C 337.859375 84.957031 297.71875 44.257812 243.574219 27.777344 C 152.316406 -0.0078125 55.824219 51.507812 28.0625 142.84375 C 0.304688 234.171875 51.777344 330.738281 143.039062 358.519531 C 197.183594 375.003906 253.167969 363.570312 295.546875 332.472656 C 257.847656 356.40625 210.339844 364.371094 164.277344 350.347656 " fill-opacity="1" fill-rule="nonzero"/></g></svg>